<svg width="101" height="60" fill="none" xmlns="http://www.w3.org/2000/svg"><path d="M100.114 29.022l-9.38-25.786a1.516 1.516 0 00-1.932-1.057L71.526 8.964c-2.929-1.64-14.021-7.758-17.5-8.336a11.203 11.203 0 00-1.833-.145c-3.023 0-5.925 1.071-6.695 1.377-1.787.21-11.237 1.44-17.6 4.62-5.543-2.856-9.95-6.143-9.995-6.176a1.515 1.515 0 00-2.175.38L.568 23.721a1.516 1.516 0 00.386 2.066L20.08 39.449c-.66 1.539-.695 3.085-.08 4.484 1.058 2.405 3.694 3.764 5.091 4.336 1.072 4.327 3.815 5.002 5.418 5.002a6.5 6.5 0 001.479-.178c1.53 3.389 3.64 4.15 5.225 4.148.816 0 1.543-.206 2.123-.452.944 1.057 2.624 2.46 5.068 2.766.255.032.496.046.722.046 1.48 0 2.394-.626 2.9-1.153.69-.717.981-1.603 1.102-2.278l3.376 2.367.09.059c.297.179 2.422 1.404 4.682 1.404.677 0 1.367-.11 2.022-.392.79-.34 1.768-1.037 2.404-2.475 1.288.066 3.256-.07 4.916-1.223 1.26-.874 2.12-2.148 2.56-3.791 1.282-.112 3.207-.525 4.72-1.906 1.124-1.028 1.826-2.381 2.092-4.04 1.35-.02 3.254-.32 4.706-1.63 1.387-1.249 2.038-3.085 1.957-5.445l16.674-8.337c.639-.32.967-1.046.786-1.74v.001zM22.774 42.71c-.293-.67-.247-1.369.146-2.2.947-2.003 2.078-3.2 3.027-3.2.57 0 1.26.418 1.997 1.188-1.16 1.442-2.645 3.725-3.043 6.293-.874-.519-1.753-1.222-2.127-2.08zm5.118 4.165v-.01c-.41-2.254.988-4.619 2.152-6.136l1.039-.98c.662-.625 2.085-1.618 3.086-1.618.867 0 1.328 1.15 1.577 2.328-1.292 1.537-4.38 5.639-4.416 9.675-.247.06-.527.107-.82.107-.5 0-2.024 0-2.618-3.366zm9.322 7.339c-1.36 0-2.268-1.708-2.815-3.25l.01-.003c-.547-3.01 2.484-7.22 3.9-8.836.237-.107.72-.285 1.286-.285.911 0 1.705.508 2.378 1.488a5.696 5.696 0 00-1.773 1.447c-1.763 2.114-2.572 5.752-2.122 9.25-.263.102-.559.188-.864.188zm9.071 1.047c0 .239-.127.82-.398 1.096-.053.053-.24.216-.736.216-.108 0-.236-.007-.359-.022-2.05-.256-3.297-1.85-3.63-2.334-.508-2.788.065-5.942 1.367-7.501.5-.6 1.041-.89 1.658-.89.203.008 1.783.163 2.587 2.863l-.531 6.393.042.099v.08zm32.39-12.974c-.868.788-2.282.898-3.182.853l-11.55-10.476a1.515 1.515 0 10-2.036 2.246l11.144 10.108c-.077 1.282-.46 2.284-1.183 2.95-.96.883-2.304 1.1-3.11 1.148l-10.85-10.364a1.517 1.517 0 00-2.094 2.192l10.503 10.032c-.231 1.114-.686 1.928-1.414 2.44-.715.5-1.578.659-2.314.694-.04-.049-.06-.106-.105-.15l-9.448-8.962a1.516 1.516 0 00-2.087 2.198l8.252 7.828-.028.13c-.298 1.34-.876 1.59-1.067 1.673-1.182.515-3.227-.408-3.91-.802l-4.745-3.326.389-4.278-.068-.258c-.896-3.388-2.938-4.789-4.528-5.215-1.726-3.577-4.243-4.137-5.647-4.137-.401 0-.779.042-1.121.108-1.007-3.276-3.061-3.816-4.306-3.816-1.485 0-2.92.759-3.905 1.437-1.39-1.5-2.838-2.26-4.315-2.26-1.6 0-3.068.881-4.334 2.545L3.902 24.17 17.393 3.665c1.865 1.3 5.532 3.723 9.837 5.874.444.222.968.213 1.404-.025 3.285-1.792 7.843-2.98 11.48-3.71a73.17 73.17 0 00-3.195 3.151c-4.951 5.168-2.794 8.302-2.48 8.707 1.217 1.413 2.885 2.16 4.821 2.158 4.248 0 8.94-3.604 10.294-4.724l3.667-.407c2.496 8.615 12.21 12.313 14.294 13.014l11.869 11.869c.068.068.156.104.234.155-.038 1.152-.346 2.017-.942 2.56v-.001zm2.082-5.628L69.402 25.304a1.513 1.513 0 00-.636-.38c-.112-.034-11.261-3.474-12.89-12.167a1.518 1.518 0 00-1.658-1.227l-5.457.606c-.31.034-.604.165-.837.37-1.35 1.191-5.536 4.283-8.663 4.283-1.025 0-1.804-.321-2.44-1.01-.106-.268-.521-1.799 2.286-4.728 5.122-5.345 7.292-6.288 7.288-6.288.033-.011.065-.024.097-.038.029-.012 2.866-1.213 5.702-1.213.475 0 .923.034 1.335.103 2.474.412 11.574 5.197 17.087 8.313.368.21.81.253 1.212.123L88.21 5.556l8.66 23.046-16.113 8.056z" fill="#DC6E36"/></svg>