<svg width="60" height="60" fill="none" xmlns="http://www.w3.org/2000/svg"><path d="M0 60h60V0H0v60z" fill="#DC6E36"/><path d="M12.532 11.78h24.77c6.335 0 9.503 2.41 9.503 7.232 0 2.462-.863 4.367-2.588 5.717-1.725 1.35-4.228 2.025-7.508 2.025H12.532V11.78zm0 18.844h24.544c4.506 0 8.084-1.103 10.733-3.31 2.648-2.207 3.973-5.042 3.973-8.506 0-3.463-1.192-6.145-3.577-8.047-2.386-1.9-5.746-2.852-10.082-2.852H7.78v36.518h4.751V30.624z" fill="#FFFAF5"/><path d="M34.47 39.625c-.347.257-.77.606-1.283 1.06-.31-.283-.725-.62-1.266-1.024L20.963 31.4h-6.41v13.018h5.417v-8.48c0-.131 0-.257-.003-.38l11.936 8.86h2.507L46.228 35.6c-.006.11-.009.218-.009.321v8.497h5.54V31.399h-6.112L34.47 39.625z" fill="#FFFAF5"/><path d="M54.742 46.68H5V5.19h49.742v41.49zM2.959 48.505h53.824V3.368H2.96v45.136zm2.199 2.467v1.139h.364c.504 0 .756-.18.756-.54 0-.4-.294-.599-.88-.599h-.24zm.658 2.666v1.495H2.873v-1.495h.587v-2.666h-.587v-1.429H5.3c1.043 0 1.74.115 2.09.344.349.23.524.685.524 1.368 0 .595-.156.989-.467 1.181-.311.193-.947.289-1.907.289h-.382v.913h.658zm2.551-2.666h1.743v.504c.19-.374.482-.561.88-.561.61 0 .915.322.915.966 0 .423-.032.781-.097 1.073h-1.032a1.38 1.38 0 00.071-.336c0-.39-.142-.585-.426-.585-.208 0-.311.177-.311.532v1.393h.533v1.175H8.367v-1.175h.471V52.09h-.47v-1.118zm5.645-.492h-1.271v-.937h1.271v.938zm.08.492v2.986h.525v1.175H12.34v-1.175h.48V52.09h-.48v-1.118h1.751zm5.556 2.986v1.175h-2.151v-1.175h.373v-1.34l-.01-.184c0-.267-.136-.401-.408-.401-.468 0-.702.254-.702.762v1.163h.453v1.175h-2.151v-1.175h.48V52.09h-.48v-1.118h1.698v.508c.32-.377.752-.565 1.298-.565.729 0 1.093.288 1.093.864v2.179h.507zm2.836-2.985v1.117h-.827v1.421l.01.21c0 .234.168.352.506.352.148 0 .332-.036.551-.107v1.118c-.42.07-.74.106-.96.106-.936 0-1.404-.324-1.404-.974l.017-.266.01-.27v-1.59h-.48v-1.117c.752-.194 1.17-.54 1.253-1.036l.035-.18a.37.37 0 01.018-.07h.444v1.286h.827zm9.676-1.43v1.43h-.57v2.665h.57v1.495H29.5v-1.495h.486v-3.05l-1.31 4.545h-.663l-1.419-4.505v3.01h.563v1.495H24.84v-1.495h.554v-2.666h-.554v-1.429h2.93l.755 2.56.764-2.56h2.872zm2.192.937h-1.2v-.937h1.2v.938zm.075.492v2.986h.495v1.175h-2.149v-1.175h.454V52.09h-.454v-1.118h1.654zm5.247 2.986v1.175h-2.032v-1.175h.353v-1.34l-.008-.184c0-.267-.13-.401-.386-.401-.443 0-.663.254-.663.762v1.163h.428v1.175h-2.032v-1.175h.453V52.09h-.453v-1.118h1.603v.508c.303-.377.711-.565 1.226-.565.689 0 1.033.288 1.033.864v2.179h.478zm1.99-3.478h-1.2v-.937h1.2v.938zm.076.492v2.986h.495v1.175h-2.15v-1.175h.454V52.09h-.453v-1.118h1.654zm4.046.001v1.61h-.974v-.111c0-.29-.21-.434-.63-.434-.33 0-.495.08-.495.241 0 .134.145.242.436.324l.63.176c.823.234 1.234.602 1.234 1.101 0 .871-.4 1.306-1.2 1.306-.532 0-.904-.145-1.117-.438v.385h-.974V53.43h.974v.082c0 .371.19.557.571.557.341 0 .512-.096.512-.287 0-.21-.196-.373-.587-.487l-.412-.123c-.789-.232-1.184-.606-1.184-1.122 0-.754.383-1.13 1.15-1.13.488 0 .851.151 1.092.454v-.401h.974zm2.955 0v1.117h-.78v1.421l.008.21c0 .234.16.352.478.352.14 0 .314-.036.521-.107v1.118c-.397.07-.7.106-.907.106-.884 0-1.326-.324-1.326-.974l.017-.266.008-.27v-1.59h-.453v-1.117c.71-.194 1.105-.54 1.183-1.036l.034-.18c0-.009.006-.032.017-.07h.42v1.286h.78zm.638-.001h1.645v.504c.18-.374.456-.561.831-.561.577 0 .865.322.865.966 0 .423-.03.781-.092 1.073h-.974c.044-.158.067-.27.067-.336 0-.39-.134-.585-.403-.585-.196 0-.294.177-.294.532v1.393h.504v1.175h-2.15v-1.175h.446V52.09h-.445v-1.118zm7.749.001v1.118h-.411l-.932 3.21c-.263.887-.792 1.33-1.587 1.33-.817 0-1.225-.275-1.225-.826 0-.186.03-.381.092-.586h.798a.714.714 0 00-.034.197c0 .166.117.25.353.25.212 0 .374-.15.486-.447l-1.25-3.128h-.437v-1.118h2.032v1.118h-.428l.738 1.81.462-1.81h-.462v-1.118h1.805z" fill="#FFFAF5"/></svg>