<svg width="43" height="60" fill="none" xmlns="http://www.w3.org/2000/svg"><path d="M39.366 21.139a20.63 20.63 0 01-.174 2.629c.053-.4.005-.043-.007.032-.015.103-.033.205-.05.307a19.166 19.166 0 01-.425 1.903 19.79 19.79 0 01-.752 2.204c.081-.193.091-.216.029-.07a19.573 19.573 0 01-2.354 4.07 19.832 19.832 0 01-2.98 3.066c-.093.078-.188.153-.281.228a34.616 34.616 0 01-.175.134 19.623 19.623 0 01-4.156 2.383c.377-.16.025-.013-.045.014-.137.055-.276.107-.415.159a19.57 19.57 0 01-4.03 1.014c-.388.055.328-.04-.062.007a19.993 19.993 0 01-4.747-.013c-.062-.008-.447-.062-.074-.009a20.103 20.103 0 01-1.778-.345 19.516 19.516 0 01-2.654-.85c-.06-.023-.408-.17-.06-.023-.102-.043-.203-.088-.304-.132a19.765 19.765 0 01-3.845-2.276c.286.215-.125-.103-.174-.142a19.805 19.805 0 01-3.033-3.046c-.052-.064-.264-.34-.009-.009a19.683 19.683 0 01-2.378-4l-.119-.275c.181.423-.003-.012-.037-.099a19.518 19.518 0 01-1.175-4.43 19.897 19.897 0 01.03-5.05c-.063.477.022-.131.041-.243a20.114 20.114 0 01.35-1.656 19.52 19.52 0 01.86-2.581c-.182.445.05-.109.096-.212a19.465 19.465 0 011.592-2.873c.19-.287.391-.567.597-.843.188-.253-.213.276-.02.027a20.45 20.45 0 01.54-.668 19.802 19.802 0 012.636-2.58c.066-.054.134-.107.201-.16.123-.097.09-.071-.098.076a19.655 19.655 0 014.32-2.52c-.477.204.089-.032.202-.076a19.345 19.345 0 013.216-.936c.351-.07.704-.13 1.06-.182.095-.014.422-.055-.036.003l.27-.032a19.883 19.883 0 014.833.054c-.46-.06-.03-.002.066.013 1.456.226 2.884.627 4.252 1.173.085.034.377.157-.026-.013l.24.104a19.6 19.6 0 013.737 2.158c.07.05.138.102.207.154-.352-.264-.1-.076-.028-.02a19.818 19.818 0 013.393 3.394c-.277-.353-.083-.105-.025-.03.07.092.137.184.205.277a19.685 19.685 0 012.141 3.747c.04.091.163.39-.017-.044a20.5 20.5 0 01.646 1.815 19.504 19.504 0 01.657 3.044c-.066-.483-.007-.047.005.055a19.975 19.975 0 01.121 2.194c.002.804.657 1.482 1.466 1.487.799.005 1.49-.662 1.487-1.466-.014-6.192-2.775-12.213-7.534-16.193a21.396 21.396 0 00-8.144-4.26c-3.118-.84-6.4-.913-9.566-.318-6.003 1.13-11.32 5.049-14.33 10.338-1.56 2.738-2.45 5.806-2.688 8.942-.272 3.565.443 7.135 1.912 10.38 1.473 3.254 3.838 6.013 6.679 8.15 3.144 2.365 6.97 3.71 10.875 4.042 3.964.336 7.99-.543 11.51-2.375 3.271-1.703 6.035-4.321 8.018-7.419 2.143-3.344 3.258-7.324 3.269-11.287a1.492 1.492 0 00-1.466-1.488 1.49 1.49 0 00-1.488 1.467z" fill="#DC6E36"/><path d="M28.345 21.139c-.002.366-.024.73-.068 1.093.057-.476-.027.127-.049.24a8.578 8.578 0 01-.3 1.107c-.037.108-.26.666-.073.223a8.656 8.656 0 01-.785 1.442c-.063.095-.42.57-.124.187a8.754 8.754 0 01-1.117 1.184c-.087.078-.555.45-.163.147a8.698 8.698 0 01-1.861 1.085c.475-.206-.089.026-.205.067a8.579 8.579 0 01-1.638.39c.503-.072-.117.003-.238.012a8.911 8.911 0 01-1.194-.007c-.114-.008-.727-.084-.25-.017a8.597 8.597 0 01-1.877-.497c-.296-.114.318.138.027.012a8.675 8.675 0 01-1.434-.798 9.094 9.094 0 01-.21-.15c-.255-.184.274.215.027.02a8.708 8.708 0 01-1.173-1.127c-.057-.065-.111-.131-.166-.198-.2-.244.214.283.024.03a8.736 8.736 0 01-.853-1.396c-.054-.11-.29-.67-.094-.191a8.544 8.544 0 01-.47-1.605c-.023-.118-.105-.732-.044-.229a8.75 8.75 0 010-2.007c.035-.324-.053.344-.004.023a8.637 8.637 0 01.516-1.87c-.16.404-.046.113-.009.028a8.628 8.628 0 01.812-1.424c.049-.071.1-.14.151-.209-.26.353-.076.102-.018.03a8.669 8.669 0 011.34-1.326c-.35.28-.107.084-.03.027a8.704 8.704 0 011.644-.948c.294-.13-.343.139-.044.02a8.661 8.661 0 011.524-.439c.118-.023.732-.105.229-.044a8.753 8.753 0 012.007 0c.324.036-.344-.053-.023-.003a8.599 8.599 0 011.788.484c.297.114-.317-.139-.026-.013a8.739 8.739 0 011.434.798c.071.049.14.1.21.15.255.184-.274-.215-.027-.02a8.697 8.697 0 011.117 1.063c.078.087.45.555.147.163a8.64 8.64 0 011.085 1.86c-.206-.474.026.09.067.206a8.505 8.505 0 01.377 1.549c.05.325-.042-.364-.006-.035.01.09.017.18.025.271.016.213.021.428.022.642.004.804.655 1.482 1.466 1.487.797.005 1.492-.662 1.488-1.466-.018-3.404-1.717-6.495-4.495-8.427-2.664-1.853-6.338-2.237-9.335-1.014-3.077 1.256-5.441 3.884-6.185 7.154-.758 3.328.233 6.822 2.566 9.296 2.343 2.487 5.815 3.489 9.142 2.946 3.14-.512 5.97-2.732 7.313-5.598.64-1.368.985-2.843.993-4.357a1.491 1.491 0 00-1.466-1.487 1.49 1.49 0 00-1.487 1.466zm1.421 16.906v20.478l2.215-1.268-8.936-3.994-1.137-.509c-.546-.244-.957-.235-1.502.009l-.134.06-.628.28-5.245 2.345-4.058 1.814 2.224 1.284V38.07l-2.215 1.268a21.329 21.329 0 0010.8 2.969 21.226 21.226 0 0010.84-2.978c.692-.41.935-1.324.527-2.021-.405-.69-1.33-.937-2.021-.526a20.538 20.538 0 01-2.454 1.243c.377-.16.025-.014-.045.014a19.63 19.63 0 01-1.9.639 19.638 19.638 0 01-2.494.527c-.113.015-.228.027-.342.04a19.974 19.974 0 01-4.745-.07c.386.052-.21-.035-.297-.05a18.943 18.943 0 01-1.98-.445 19.66 19.66 0 01-2.105-.72c-.35-.142.287.123-.06-.026a19.587 19.587 0 01-2.249-1.153c-.953-.566-2.215.164-2.215 1.267v20.474c0 .528.28 1.024.739 1.289.494.285.99.217 1.486-.005l8.936-3.994 1.141-.51-1.486.005 8.936 3.994 1.142.51c.494.221.994.283 1.485-.005.442-.259.73-.75.73-1.263V38.064c0-.803-.658-1.481-1.466-1.486-.8-.005-1.487.662-1.487 1.467z" fill="#DC6E36"/></svg>