<svg width="61" height="61" fill="none" xmlns="http://www.w3.org/2000/svg"><path d="M20.007 29.044l5.963 5.963 5.305 5.305v-1.849l-4.3 4.3-8.462 8.462-5.965 5.965-.32.32.12-.084c-.127.07-.102.064.073-.019a.622.622 0 01.291.012c.087.018.255.13.302.178l-.066-.066-.335-.335-3.272-3.272-6.6-6.6-.02-.02a.988.988 0 01.178.302c.018.055-.046.527.012.291l-.065.151c.074-.118.06-.104-.039.043l.007-.007.127-.127.699-.699 2.811-2.81 8.36-8.361 6.463-6.463.581-.581a1.32 1.32 0 000-1.85 1.32 1.32 0 00-1.848 0l-4.3 4.301-8.463 8.462-5.965 5.965-.32.32c-.78.781-.89 2.108-.084 2.914l.205.206 2.965 2.965 7.008 7.007c.157.157.315.29.507.416.785.517 1.9.227 2.525-.398l.42-.42 2.4-2.4 8.141-8.141a467533.46 467533.46 0 018.079-8.079 1.32 1.32 0 000-1.849L27.16 32.5l-5.305-5.305a1.32 1.32 0 00-1.849 0 1.32 1.32 0 000 1.85zm37.826-17.139L52.539 17.2l-5.807 5.807-7.235 7.235-.694.693h1.85l-5.964-5.963-5.305-5.306v1.849l4.307-4.308L42.16 8.74l5.944-5.945.233-.233c.054-.053.185-.16-.044.01.233-.173-.258.064.009-.002a.719.719 0 01-.54-.065c-.11-.053-.182-.151-.133-.102l.072.072.347.347 3.31 3.31 6.549 6.549.016.016c-.202-.202-.21-.416-.174-.68-.037.135-.022.112.045-.068-.073.118-.06.104.04-.043-.479.527-.522 1.327 0 1.849.485.485 1.37.528 1.849 0 .74-.817.918-2.078.083-2.913l-.206-.207-1.15-1.149L54.424 5.5A155945.632 155945.632 0 0049.577.653c-.17-.17-.348-.335-.567-.44-.835-.403-1.803-.22-2.457.434l-4.638 4.638-8.498 8.497-5.674 5.674-.208.208a1.32 1.32 0 000 1.85l5.963 5.963 5.305 5.305a1.32 1.32 0 001.85 0l6.579-6.58 5.399-5.398 5.994-5.994 1.056-1.056a1.32 1.32 0 000-1.849 1.319 1.319 0 00-1.848 0z" fill="#DC6E36"/><path d="M41.258 18.885l5.722 5.723a1.32 1.32 0 001.849 0 1.32 1.32 0 000-1.85l-5.722-5.721a1.32 1.32 0 00-1.85 0 1.32 1.32 0 000 1.848zm1.622 9.823l-2.598-2.598a1.32 1.32 0 00-1.848 0 1.32 1.32 0 000 1.85l2.597 2.596a1.32 1.32 0 001.849 0 1.32 1.32 0 000-1.848zM30.878 40.709l-2.598-2.597a1.32 1.32 0 00-1.848 0 1.32 1.32 0 000 1.849l2.597 2.597a1.32 1.32 0 001.849 0 1.32 1.32 0 000-1.85zm-13.521 2.075l5.723 5.722a1.32 1.32 0 001.849 0 1.32 1.32 0 000-1.849l-5.723-5.722a1.32 1.32 0 00-1.849 0 1.32 1.32 0 000 1.85zm1.571 9.876c-.865-.867-1.731-1.732-2.597-2.598a1.32 1.32 0 00-1.849 0 1.32 1.32 0 000 1.849l2.598 2.597a1.32 1.32 0 001.848 0 1.32 1.32 0 000-1.849zM54.83 16.758l-2.597-2.597a1.32 1.32 0 00-1.85 0 1.32 1.32 0 000 1.849l2.598 2.597a1.32 1.32 0 001.849 0 1.32 1.32 0 000-1.849zm1.12 31.32l-6.583 6.583-.947.947h1.849l-2.34-2.34-22.852-22.85-7.79-7.791L11.96 17.3l-1.458-1.458v1.849l6.583-6.584.947-.947h-1.849l5.962 5.962 5.427 5.427 6.493 6.494 4.852 4.852 17.03 17.03a1.32 1.32 0 001.849 0 1.32 1.32 0 000-1.849l-4.642-4.641-12.553-12.554-6.568-6.568-4.845-4.845-7.068-7.069-4.09-4.089a1.32 1.32 0 00-1.848 0l-6.584 6.584-.947.947a1.32 1.32 0 000 1.849l2.34 2.34 6 5.999 8.127 8.127 8.724 8.725 7.79 7.79 5.326 5.326 1.458 1.458a1.32 1.32 0 001.849 0l6.583-6.583.947-.947a1.32 1.32 0 000-1.85 1.319 1.319 0 00-1.846.002z" fill="#DC6E36"/><path d="M16.185 8.313l-6.583 6.584-.948.947h1.85l-5.88-5.88c-.098-.098-.08-.101.033.057-.052-.072-.152-.33-.024.002-.033-.085-.073-.366-.027.014a1.397 1.397 0 010-.256c-.021.357-.006.117.027.015-.1.316-.032.09.024.002-.148.236-.09.113-.022.044l.361-.361 1.758-1.759 3.395-3.395.04-.04c.172-.172-.362.238-.01.003-.22.06-.44.12-.66.178a1.3 1.3 0 00.66-.178c.252-.148-.294.087.023-.019.307-.103-.275.001.047-.01.296-.01-.324-.075 0-.003.087.019.27.107-.055-.038.072.032.297.207.042-.002.03.025.057.053.084.08l.362.362L12.4 6.378 16.022 10l.163.163a1.32 1.32 0 001.849 0 1.32 1.32 0 000-1.849l-5.88-5.879c-.869-.87-2.24-1.02-3.295-.402.22-.06.44-.12.66-.178-.757 0-1.34.746-1.84 1.246L5.735 5.045c-1.007 1.007-2.05 1.988-3.023 3.027-.82.875-.92 2.16-.36 3.195.147.272.369.494.585.71l1.48 1.48 3.86 3.861c.126.125.252.25.377.377a1.32 1.32 0 001.85 0l6.583-6.584.947-.947a1.32 1.32 0 000-1.849 1.32 1.32 0 00-1.85-.002zm39.853 47.744c0 .329 0 .658-.003.987l1.307-1.307c-1.233.005-2.468-.014-3.7-.05a47.654 47.654 0 01-2.677-.14 17.106 17.106 0 01-.546-.056c-.338-.04.236.034.086.012a6.561 6.561 0 01-.232-.038 3.284 3.284 0 01-.34-.077c-.127-.037-.335-.15.163.076-.204-.092.212.182.172.145v1.848l7.53-7.53h-1.85c-.421-.536-.252-.485-.176-.157.026.113.043.23.06.344-.054-.344.009.096.016.16.017.163.03.326.043.49.05.617.073 1.238.095 1.858.04 1.144.051 2.29.052 3.435a1.32 1.32 0 001.307 1.307 1.32 1.32 0 001.308-1.307 104.194 104.194 0 00-.061-3.666 36.716 36.716 0 00-.112-1.928c-.077-.855-.136-1.69-.682-2.384-.442-.561-1.39-.46-1.85 0l-6.582 6.583-.947.947c-.49.49-.522 1.364 0 1.849.603.56 1.515.6 2.288.68.91.093 1.828.128 2.742.158 1.297.042 2.596.06 3.893.056a1.32 1.32 0 001.307-1.308c.003-.329.004-.658.004-.987a1.32 1.32 0 00-1.308-1.307 1.32 1.32 0 00-1.307 1.307z" fill="#DC6E36"/><path d="M16.185 8.313l-6.584 6.584-.947.947h1.85l-5.88-5.88c-.098-.098-.08-.101.033.057-.052-.072-.153-.33-.024.002-.033-.085-.073-.366-.027.014a1.4 1.4 0 010-.256c-.021.357-.006.117.027.015-.101.316-.032.09.024.001-.148.237-.09.114-.022.045l.361-.361 1.758-1.758 3.395-3.395.04-.04c.172-.172-.362.237-.011.002-.22.06-.44.12-.66.178.233 0 .46-.06.66-.178.253-.148-.293.087.023-.019.307-.103-.275.001.047-.01.296-.01-.324-.075 0-.003.088.019.271.107-.055-.038.072.032.298.207.043-.002.029.025.057.053.084.08l.361.362L12.4 6.378 16.02 10c.055.054.11.108.163.163a1.32 1.32 0 001.85 0 1.32 1.32 0 000-1.849l-5.88-5.879c-.87-.87-2.24-1.02-3.295-.402.22-.06.44-.12.66-.178-.757 0-1.34.747-1.84 1.247L5.734 5.045C4.73 6.05 3.685 7.033 2.712 8.072c-.82.875-.92 2.16-.36 3.195.147.271.369.494.585.71l1.48 1.48 3.86 3.86.377.377a1.32 1.32 0 001.85 0c2.194-2.194 4.388-4.39 6.583-6.583l.947-.947a1.32 1.32 0 000-1.85 1.318 1.318 0 00-1.849 0zm39.854 47.744c0 .329 0 .658-.003.987l1.307-1.307c-1.234.005-2.468-.014-3.7-.05a47.658 47.658 0 01-2.678-.14 17.1 17.1 0 01-.545-.056c-.338-.04.236.034.085.012a6.561 6.561 0 01-.232-.038 3.284 3.284 0 01-.339-.077c-.127-.037-.336-.15.162.077-.203-.093.212.181.172.144v1.849l6.583-6.584c.315-.314.648-.618.948-.947h-1.85c-.42-.54-.252-.483-.177-.157.027.113.043.23.061.345-.054-.345.008.095.015.16.018.162.03.325.043.488.05.618.074 1.24.095 1.859.04 1.145.052 2.29.053 3.435a1.32 1.32 0 001.307 1.307 1.32 1.32 0 001.307-1.307c0-1.222-.016-2.444-.06-3.665a36.716 36.716 0 00-.113-1.928c-.076-.858-.137-1.687-.681-2.386-.425-.544-1.412-.48-1.85 0-.786.867-1.664 1.665-2.491 2.492l-4.061 4.061-.977.978c-.49.49-.523 1.363 0 1.849.603.56 1.514.6 2.288.68.91.092 1.828.128 2.742.158 1.297.042 2.596.06 3.893.055a1.32 1.32 0 001.307-1.307c.003-.329.004-.658.004-.987a1.32 1.32 0 00-1.308-1.307 1.32 1.32 0 00-1.307 1.307z" fill="#DC6E36"/></svg>