<svg width="60" height="60" fill="none" xmlns="http://www.w3.org/2000/svg"><path d="M11.09 60c-.638 0-1.148 0-1.786-.128-.51-.127-.893-.382-1.02-.893-.128-.51 0-.893.255-1.276l3.316-3.316c.893-.893 1.276-1.913 1.276-3.19 0-1.147-.51-2.295-1.276-3.06-1.658-1.66-4.592-1.66-6.25 0l-3.317 3.316c-.383.383-.893.51-1.276.255-.51-.128-.765-.51-.893-1.02-.51-3.445.638-7.017 3.062-9.568 2.04-2.04 4.847-3.189 7.781-3.189 1.148 0 2.296.128 3.317.51l24.109-24.109c-1.276-3.954-.255-8.164 2.678-11.098C43.618.685 47.063-.464 50.634.174c.51.128.893.383 1.02.893.128.51 0 .893-.255 1.276l-3.316 3.316c-.893.893-1.276 1.914-1.276 3.19 0 1.148.51 2.296 1.276 3.061 1.658 1.658 4.592 1.658 6.25 0l3.317-3.316c.382-.383.893-.51 1.275-.255.51.127.766.51.894 1.02.51 3.444-.638 7.016-3.062 9.567-2.041 2.041-4.847 3.19-7.781 3.19-1.148 0-2.297-.128-3.317-.511L21.677 45.713c1.276 3.954.255 8.164-2.679 11.098C16.83 58.85 14.023 60 11.09 60zM8.92 44.31c1.913 0 3.572.765 4.975 2.041a7.042 7.042 0 012.041 4.975c0 1.913-.765 3.572-2.041 4.975l-1.148 1.148c1.658-.255 3.189-1.148 4.464-2.296 2.424-2.424 3.19-5.995 1.914-9.185-.255-.51-.128-1.02.255-1.403l25.257-25.257c.383-.383.893-.51 1.403-.255 1.02.383 2.041.638 3.19.638 2.295 0 4.336-.893 5.994-2.424 1.276-1.276 2.041-2.806 2.297-4.464l-1.148 1.147a7.042 7.042 0 01-4.975 2.042c-1.914 0-3.572-.766-4.975-2.042a7.042 7.042 0 01-2.041-4.974c0-1.914.765-3.572 2.04-4.975l1.149-1.148c-1.659.255-3.19 1.148-4.465 2.296-2.424 2.424-3.189 5.995-1.913 9.184.255.51.127 1.02-.255 1.403l-25.257 25.13c-.383.382-.893.51-1.403.255-1.02-.383-2.042-.638-3.19-.638-2.296 0-4.337.893-5.995 2.424-1.276 1.275-2.041 2.806-2.296 4.464l1.148-1.148C5.22 44.947 7.006 44.31 8.92 44.31z" fill="#DC6E36"/><path d="M48.465 55.28c-1.02 0-2.04-.383-2.678-1.148L33.669 42.014c-.766-.766-1.148-1.659-1.148-2.679 0-1.02.382-2.041 1.148-2.679l3.061-3.061c1.403-1.403 3.955-1.403 5.485 0l12.118 12.118c.766.765 1.148 1.658 1.148 2.678s-.382 2.042-1.148 2.68l-3.061 3.06c-.893.766-1.786 1.149-2.807 1.149zm-9.184-20.41c-.383 0-.638.127-.893.382l-3.062 3.062c-.255.255-.382.51-.382.893s.127.637.382.893l12.118 12.118c.51.51 1.403.51 1.786 0l3.062-3.062c.255-.255.382-.51.382-.893 0-.382-.127-.637-.383-.893l-11.99-12.118c-.255-.255-.637-.382-1.02-.382z" fill="#DC6E36"/><path d="M35.964 37.165c-.383 0-.638-.127-.893-.382l-3.19-3.19a1.233 1.233 0 010-1.785 1.234 1.234 0 011.786 0l3.19 3.189c.51.51.51 1.276 0 1.786-.255.255-.51.382-.893.382zm-8.674-8.673c-.383 0-.638-.128-.894-.383L11.6 13.44a1.233 1.233 0 010-1.786c.51-.51 1.275-.51 1.785 0L28.182 26.45c.51.51.51 1.276 0 1.786-.255.128-.51.255-.893.255z" fill="#DC6E36"/><path d="M11.345 14.843h-.383l-2.168-.638c-.255-.127-.51-.255-.638-.51L4.711 8.72c-.382-.51-.255-1.148.128-1.658l2.296-2.297c.383-.382 1.148-.51 1.659-.127l4.975 3.444c.255.128.382.383.51.638l.638 2.168c.127.51 0 .893-.255 1.276l-2.296 2.296c-.256.255-.639.383-1.021.383zm-1.276-2.934l1.02.255 1.149-1.148-.255-1.02-3.7-2.552-.893.638 2.68 3.827z" fill="#DC6E36"/></svg>