<svg width="49" height="61" fill="none" xmlns="http://www.w3.org/2000/svg"><path d="M39.777 0a1.07 1.07 0 00-.418 2.061l4.605 1.948L2.828 20.681a1.07 1.07 0 10.807 1.983L44.77 5.991l-1.921 4.586a1.069 1.069 0 00.572 1.403 1.071 1.071 0 001.403-.573l2.85-6.807a1.07 1.07 0 00-.625-1.611L40.189.095c-.13-.059-.27-.09-.412-.094h0zM32.58 20.54a1.068 1.068 0 00-1.074 1.073v6.645H17.404a1.078 1.078 0 00-.111 0 1.07 1.07 0 00-.963 1.066v6.645H2.229a1.07 1.07 0 00-1.066 1.075v21.89A1.07 1.07 0 002.23 60h45.52a1.07 1.07 0 001.074-1.066v-37.32a1.069 1.069 0 00-1.074-1.075H32.58zm1.066 2.142h13.035V57.86H33.646V22.682zm-15.174 7.717h13.034v27.46H18.472V30.4zm-15.169 7.71h13.026v19.75H3.303V38.11z" fill="#DC6E36" stroke="#DC6E36" stroke-width=".5"/></svg>