<svg width="38" height="36" fill="none" xmlns="http://www.w3.org/2000/svg"><path d="M26.024 0H11.977C5.512 0 .27 5.038.27 11.25v13.5C.27 30.962 5.512 36 11.977 36h14.047c6.464 0 11.706-5.038 11.706-11.25v-13.5C37.73 5.038 32.488 0 26.024 0zm8.194 24.75c0 4.343-3.676 7.875-8.194 7.875H11.977c-4.519 0-8.195-3.532-8.195-7.875v-13.5c0-4.343 3.676-7.875 8.195-7.875h14.047c4.518 0 8.194 3.532 8.194 7.875v13.5z" fill="#363636"/><path d="M19 9c-5.171 0-9.364 4.03-9.364 9s4.193 9 9.365 9c5.171 0 9.364-4.03 9.364-9s-4.193-9-9.364-9zm0 14.625c-3.226 0-5.852-2.524-5.852-5.625 0-3.103 2.626-5.625 5.853-5.625 3.226 0 5.853 2.522 5.853 5.625 0 3.1-2.627 5.625-5.853 5.625zM29.067 9.524c.69 0 1.248-.537 1.248-1.199s-.559-1.2-1.248-1.2-1.248.538-1.248 1.2c0 .662.559 1.2 1.248 1.2z" fill="#363636"/></svg>